<svg xmlns="http://www.w3.org/2000/svg" viewBox="0 0 192 192">
  <g id="e8053a3c-f7cd-44ff-b5bf-578e4de8ad22" data-name="connectivity">
    <path d="M144.34,37.35A76,76,0,1,1,96,20a75.86,75.86,0,0,1,48.34,17.35" fill="none" stroke="#333" stroke-linecap="round" stroke-linejoin="round" stroke-width="8"/>
    <path d="M121.3,63a102,102,0,0,1,12.5,13.6,103.41,103.41,0,0,1,20.9,67.6" fill="none" stroke="#333" stroke-linecap="round" stroke-linejoin="round" stroke-width="8"/>
    <path d="M49.58,35.82a109.94,109.94,0,0,1,56.09,15.55" fill="none" stroke="#333" stroke-linecap="round" stroke-linejoin="round" stroke-width="8"/>
    <path d="M85.87,145.44A106.45,106.45,0,0,0,94.22,172" fill="none" stroke="#333" stroke-linecap="round" stroke-linejoin="round" stroke-width="8"/>
    <path d="M107.12,64.1A101.26,101.26,0,0,0,84.38,126" fill="none" stroke="#333" stroke-linecap="round" stroke-linejoin="round" stroke-width="8"/>
    <path d="M142.4,35.81a112.38,112.38,0,0,0-21.63,14.38" fill="none" stroke="#333" stroke-linecap="round" stroke-linejoin="round" stroke-width="8"/>
    <path d="M123.45,56.48a113.06,113.06,0,0,1,41.69,7.93" fill="none" stroke="#333" stroke-linecap="round" stroke-linejoin="round" stroke-width="8"/>
    <path d="M55.07,82.4a103.24,103.24,0,0,1,49-24.06" fill="none" stroke="#333" stroke-linecap="round" stroke-linejoin="round" stroke-width="8"/>
    <path d="M25.89,125.38A108.5,108.5,0,0,1,41.76,96.63" fill="none" stroke="#333" stroke-linecap="round" stroke-linejoin="round" stroke-width="8"/>
    <path d="M92.76,141.21a108.94,108.94,0,0,0,49.54,15" fill="none" stroke="#333" stroke-linecap="round" stroke-linejoin="round" stroke-width="8"/>
    <path d="M52.12,98A107.25,107.25,0,0,0,77,129.76" fill="none" stroke="#333" stroke-linecap="round" stroke-linejoin="round" stroke-width="8"/>
    <path d="M39.28,45.42A119.89,119.89,0,0,0,44.71,80" fill="none" stroke="#333" stroke-linecap="round" stroke-linejoin="round" stroke-width="8"/>
    <circle cx="48.06" cy="89.18" r="9.75" fill="none" stroke="#333" stroke-linecap="round" stroke-linejoin="round" stroke-width="8"/>
    <circle cx="84.65" cy="135.77" r="9.75" fill="none" stroke="#333" stroke-linecap="round" stroke-linejoin="round" stroke-width="8"/>
    <circle cx="113.7" cy="56.9" r="9.75" fill="none" stroke="#333" stroke-linecap="round" stroke-linejoin="round" stroke-width="8"/>
    <rect width="192" height="192" fill="none"/>
  </g>
</svg>
